PathFileType	4	(X/Y/Z)	c:/Users/goper/Files/vsCode/490R/osim_files/A02/A02_Slow_05.trc
DataRate	CameraRate	NumFrames	NumMarkers	Units                	OrigDataRate	OrigDataStartFrame	OrigNumFrames
250.00	250.00	10	36	mm	250.0	1522	2435
                Frame#	Time	Mobility_markerset:LPSIS			Mobility_markerset:LASIS			Mobility_markerset:LTH1			Mobility_markerset:LTH2			Mobility_markerset:LTH3			Mobility_markerset:LTH4			Mobility_markerset:LLFE			Mobility_markerset:LMFE			Mobility_markerset:LSH1			Mobility_markerset:LSH2			Mobility_markerset:LSH3			Mobility_markerset:LSH4			Mobility_markerset:LLMAL			Mobility_markerset:LMMAL			Mobility_markerset:LCAL			Mobility_markerset:LMTP5			Mobility_markerset:LTOE			Mobility_markerset:LMTP1			Mobility_markerset:RPSIS			Mobility_markerset:RASIS			Mobility_markerset:RTH1			Mobility_markerset:RTH2			Mobility_markerset:RTH3			Mobility_markerset:RTH4			Mobility_markerset:RLFE			Mobility_markerset:RMFE			Mobility_markerset:RSH1			Mobility_markerset:RSH2			Mobility_markerset:RSH3			Mobility_markerset:RSH4			Mobility_markerset:RLMAL			Mobility_markerset:RMMAL			Mobility_markerset:RCAL			Mobility_markerset:RMTP1			Mobility_markerset:RTOE			Mobility_markerset:RMTP5		
		X1	Y1	Z1	X2	Y2	Z2	X3	Y3	Z3	X4	Y4	Z4	X5	Y5	Z5	X6	Y6	Z6	X7	Y7	Z7	X8	Y8	Z8	X9	Y9	Z9	X10	Y10	Z10	X11	Y11	Z11	X12	Y12	Z12	X13	Y13	Z13	X14	Y14	Z14	X15	Y15	Z15	X16	Y16	Z16	X17	Y17	Z17	X18	Y18	Z18	X19	Y19	Z19	X20	Y20	Z20	X21	Y21	Z21	X22	Y22	Z22	X23	Y23	Z23	X24	Y24	Z24	X25	Y25	Z25	X26	Y26	Z26	X27	Y27	Z27	X28	Y28	Z28	X29	Y29	Z29	X30	Y30	Z30	X31	Y31	Z31	X32	Y32	Z32	X33	Y33	Z33	X34	Y34	Z34	X35	Y35	Z35	X36	Y36	Z36

1522	6.08400	-1209.18164	952.50592	327.87442	-1354.57922	921.83405	406.71954	-1293.92078	658.66870	412.87943	0.00000	0.00000	0.00000	-1348.16162	673.79901	438.04315	-1357.92419	630.56506	428.11832	0.00000	0.00000	0.00000	0.00000	0.00000	0.00000	-1328.56311	389.55124	370.87411	-1323.01672	346.48334	377.10889	-1387.44678	377.95874	382.40427	-1374.01794	335.20880	385.52066	-1323.28967	96.13405	332.30704	-1338.72021	104.64983	251.05217	-1256.72107	76.33026	281.70615	-1415.28589	45.11294	350.40704	-1467.91821	63.55421	287.38025	-1435.00696	37.11340	239.38893	-1215.26892	974.71790	227.99226	-1375.55457	963.63080	167.38356	-1348.17688	642.91187	115.66593	-1352.29358	599.02075	115.11585	-1407.28809	641.62402	123.16629	-1404.25220	599.27667	119.61066	-1362.45264	486.88904	103.28288	-1367.45312	482.67935	237.61505	-1249.50659	339.15353	117.01305	-1227.74817	298.31192	126.34622	-1299.72644	307.43134	118.68201	-1271.19849	269.60355	124.64879	-1138.61414	162.82605	120.44081	-1142.33325	161.42894	204.44405	-1080.05054	174.10905	158.74707	-1229.90552	65.81060	208.49275	-1256.99866	64.67593	176.09538	-1230.40466	67.40897	116.56271
1523	6.08800	-1212.77600	953.55231	327.89743	-1358.06458	922.67743	407.13196	-1295.92029	659.72662	412.75137	0.00000	0.00000	0.00000	-1350.12793	674.38519	438.16119	-1359.65454	631.12354	428.19312	0.00000	0.00000	0.00000	0.00000	0.00000	0.00000	-1328.42236	390.09863	370.85757	-1323.07031	346.93896	376.85410	-1387.52173	378.14560	382.39258	-1374.03003	335.63406	385.45459	-1323.47290	96.28947	332.28189	-1339.00244	104.81542	251.04156	-1257.00842	76.77868	281.45447	-1415.31665	45.04865	350.40866	-1468.04810	63.38491	287.36432	-1435.11328	37.10661	239.36432	-1218.91296	975.77338	228.06328	-1379.06458	964.84943	167.66954	-1352.39258	644.06763	116.01989	-1356.99207	599.98663	115.28979	-1413.08838	643.59229	123.79977	-1408.55164	600.61035	120.13376	-1367.27502	488.07306	103.70991	-1372.42065	483.95065	237.98590	-1257.18433	338.23868	117.38458	-1236.13794	297.04285	126.73910	-1307.98669	307.45709	119.11697	-1280.18835	269.19571	125.04350	-1149.55859	159.81485	120.83613	-1153.22131	158.52306	204.94997	-1090.76221	170.04228	159.15424	-1242.60754	64.85310	209.25078	-1269.92554	64.07874	176.71689	-1243.23083	66.12659	117.10349
1524	6.09200	-1216.39856	954.58380	327.94180	-1361.26514	923.53357	407.44626	-1297.90686	660.84210	412.64444	0.00000	0.00000	0.00000	-1352.22949	675.03564	438.19299	-1361.45459	631.73486	428.20615	0.00000	0.00000	0.00000	-1457.16785	492.57486	209.97218	-1328.62292	390.57874	370.57065	-1323.04614	347.39883	376.62170	-1387.53052	378.50690	382.35760	-1373.94666	336.03644	385.44864	-1323.62756	96.44472	332.23730	-1339.33752	104.98588	251.03925	-1257.20056	76.97010	281.44138	-1415.36072	45.01364	350.41617	-1468.17078	63.21313	287.36478	-1435.07349	37.01767	239.51625	-1222.48682	976.81799	228.17703	-1382.82507	965.96875	168.03696	-1356.63257	645.23694	116.36633	-1361.06641	601.36700	115.88152	-1417.29944	644.87201	124.14888	-1412.82678	601.87012	120.47585	-1372.02808	489.19031	104.09136	-1377.04260	485.18771	238.48016	-1264.84827	337.28812	117.80807	-1244.63000	295.77615	127.21856	-1316.23120	307.49390	119.46136	-1289.11279	268.63190	125.50706	-1160.74207	156.72391	121.26420	-1164.41724	155.58536	205.37108	-1101.69153	165.94322	159.55225	-1255.22461	63.49930	209.31905	-1282.75781	63.39867	177.16148	-1256.20776	64.90857	117.60260
1525	6.09600	-1220.02893	955.65289	327.94998	-1365.02051	924.27631	407.98398	-1299.84644	661.90424	412.61218	0.00000	0.00000	0.00000	-1353.81409	675.75848	438.36237	-1363.07251	632.27539	428.32983	0.00000	0.00000	0.00000	-1458.79407	493.39429	209.47409	-1328.77600	391.04459	370.30676	-1322.20618	346.89474	374.80463	-1387.43848	379.00256	382.31799	-1373.71240	336.27768	385.37421	-1323.76233	96.61018	332.20596	-1339.70276	105.30728	251.08615	-1257.29102	77.33374	281.39883	-1415.42407	44.97430	350.40826	-1468.34424	63.04413	287.37854	-1435.12854	36.95797	239.54045	-1226.30737	977.84625	228.24014	-1386.44287	967.02942	168.36400	-1360.90125	646.26105	116.64109	-1365.59314	602.23859	116.02628	-1419.91626	645.41699	124.27789	-1417.03052	602.97955	120.78957	-1376.75085	490.27277	104.55250	-1381.72803	486.36295	238.91693	-1272.62988	336.28162	118.26917	-1253.64331	294.33331	127.75485	-1324.48743	307.47656	119.96864	-1298.17883	268.15012	125.95795	-1171.97351	153.72443	121.70169	-1175.63623	152.63774	205.84477	-1113.17834	161.40689	160.04671	-1268.41138	62.36995	210.02888	-1295.76770	62.72252	177.73196	-1269.17798	63.84267	118.03200
1526	6.10000	-1223.61035	956.82642	327.93915	-1368.38171	925.15686	408.33734	-1301.77881	662.98749	412.55862	0.00000	0.00000	0.00000	-1356.15271	676.35461	438.41748	-1364.32751	632.60211	428.41064	0.00000	0.00000	0.00000	-1460.29395	494.25137	209.15526	-1328.78259	391.52463	369.98410	-1322.14941	347.38263	374.54971	-1387.54492	379.32816	382.42551	-1373.64124	336.66272	385.40460	-1323.93091	96.80160	332.18726	-1340.39490	105.31763	250.84866	-1257.53809	77.62357	281.41470	-1415.47668	44.90748	350.40417	-1468.52539	62.89291	287.41513	-1435.12793	37.02095	239.52917	-1229.90637	978.95001	228.26904	-1390.15955	968.10809	168.67465	-1365.01501	647.32239	117.02866	-1369.88049	603.31226	116.39778	-1424.15308	646.61145	124.66825	-1421.22278	604.06348	121.03068	-1381.46265	491.34140	104.87692	-1386.49426	487.56601	239.30998	-1280.34119	335.30109	118.56352	-1261.81042	293.02075	128.06779	-1333.39160	306.95633	120.97276	-1307.55603	267.52875	126.37480	-1183.44751	150.66229	122.12550	-1187.12439	149.74344	206.29068	-1124.56580	157.12454	160.41382	-1281.74280	61.65501	210.55302	-1309.12048	62.37774	178.22958	-1282.19836	62.89510	118.39624
1527	6.10400	-1227.32788	957.88898	327.89539	-1371.78064	925.92395	408.69220	-1303.85815	664.02203	412.54077	0.00000	0.00000	0.00000	-1358.15100	676.98889	438.51831	0.00000	0.00000	0.00000	0.00000	0.00000	0.00000	-1461.61035	495.15775	209.03326	-1329.06641	391.79977	369.58527	-1322.09082	347.87946	374.32281	-1387.50378	379.74210	382.43372	-1373.56616	337.12869	385.43811	-1324.10840	96.97867	332.16333	-1339.95361	105.80622	251.20030	-1257.67896	77.96203	281.41312	-1415.50659	44.84526	350.42227	-1468.71960	62.75987	287.46545	-1435.06860	37.01737	239.64366	-1233.58191	980.09729	228.34929	-1393.94019	969.17181	169.04898	-1369.08301	648.26813	117.35489	-1374.22815	604.23676	116.79443	-1429.73389	648.37250	125.22542	-1425.86438	605.28436	121.68364	-1386.23828	492.26587	105.35287	-1391.04431	488.66653	239.66312	-1288.22412	334.26666	119.02849	-1270.47815	291.60010	128.53838	-1341.57556	307.22043	121.51293	-1316.68689	267.05154	126.88238	-1195.38403	147.36096	122.74774	-1198.72058	146.88211	206.72935	-1136.01917	152.95427	160.82018	-1295.16907	60.73778	211.07858	-1322.40576	62.02841	178.82736	-1295.98682	61.76938	119.23805
1528	6.10800	-1230.79846	959.05652	327.85318	-1374.76501	926.60840	408.92047	-1305.81995	665.12811	412.52652	0.00000	0.00000	0.00000	-1360.10132	677.71210	438.60611	-1368.44641	633.75549	428.41690	0.00000	0.00000	0.00000	0.00000	0.00000	0.00000	-1328.62390	392.54221	369.38995	-1322.09241	348.37509	374.09778	-1387.46509	380.18826	382.53427	-1373.44177	337.64020	385.48035	-1324.26807	97.18977	332.15268	-1340.17822	106.06756	251.24055	-1257.72668	78.27962	281.33487	-1415.58594	44.78045	350.45270	-1468.91650	62.62819	287.51669	-1435.37402	36.99842	239.59077	-1236.84668	981.31641	228.20682	-1397.62952	970.14612	169.38109	-1373.22827	649.23126	117.74754	-1378.31055	605.23273	117.17287	-1433.74792	649.46857	125.55064	-1430.01477	606.32880	122.03226	-1390.87988	493.19937	105.80465	-1395.02429	489.83871	239.90617	-1296.26794	333.08725	119.49173	-1279.24756	290.17871	128.98523	-1350.05920	307.29703	122.00871	-1325.99878	266.60574	127.43243	-1207.14417	144.40343	123.20907	-1210.42944	144.07185	207.23822	-1147.60291	148.73329	161.25182	-1308.72668	60.16928	211.48694	-1336.01929	61.79234	179.35164	-1309.47559	60.95395	119.75943
1529	6.11200	-1234.48303	960.20764	327.81427	-1378.48621	927.45447	409.30801	-1307.71631	666.24164	412.55518	0.00000	0.00000	0.00000	-1362.12708	678.40094	438.70752	-1369.63550	634.96606	429.05353	0.00000	0.00000	0.00000	0.00000	0.00000	0.00000	-1329.23633	392.76361	369.08926	-1322.05078	348.85498	373.84613	-1387.37964	380.77673	382.61230	-1373.38721	338.09763	385.51755	-1324.46912	97.41608	332.16428	-1340.46838	106.38371	251.34668	-1257.93384	78.68642	281.28430	-1415.63904	44.75875	350.45282	-1469.07910	62.47983	287.55347	-1434.93018	36.31448	239.00468	-1240.54907	982.40784	228.25555	-1401.36890	971.13684	169.82753	-1377.46533	650.06641	118.18667	-1382.51794	606.06152	117.54394	-1436.07300	649.69751	125.62456	-1434.25281	607.35785	122.44762	-1395.45435	494.06473	106.18777	-1399.95581	490.57639	240.47711	-1304.66260	331.84811	120.14713	-1288.56604	288.71304	129.51390	-1358.54810	307.38135	122.48549	-1335.26282	266.20004	127.91722	-1218.83362	141.36726	123.80633	-1222.57153	141.30194	207.88605	-1159.41577	144.60732	161.69888	-1322.29443	59.25735	212.37669	-1349.55688	61.62848	179.90648	-1323.14514	60.14975	120.37810
1530	6.11600	-1238.07324	961.30066	327.77576	-1381.34839	928.16962	409.52151	-1309.70569	667.28943	412.56622	0.00000	0.00000	0.00000	-1364.03625	679.07251	438.84195	-1371.71021	635.17334	428.85773	0.00000	0.00000	0.00000	-1466.01086	497.70911	207.88918	-1329.12048	393.31845	368.64551	-1322.03137	349.38342	373.61584	-1387.36816	381.23685	382.69101	-1373.34631	338.53128	385.53552	-1324.70935	97.65485	332.18134	-1340.79517	106.70075	251.42622	-1258.08130	79.27065	281.35135	-1415.68030	44.68626	350.47366	-1469.25378	62.35567	287.60883	-1437.76953	37.63462	237.10736	-1244.65515	983.42035	228.38199	-1405.11353	972.03668	170.20189	-1381.36401	650.89612	118.51630	-1386.71057	606.92755	117.91265	0.00000	0.00000	0.00000	-1438.40344	608.33380	122.86646	-1400.04834	494.89178	106.64259	-1404.36182	491.56223	240.95882	-1312.18115	330.97104	120.36089	-1297.00403	287.32187	129.89220	-1367.07263	307.50595	122.95563	-1344.57715	265.91068	128.39864	-1231.03479	138.61642	124.12772	-1234.32605	138.59904	208.11241	-1171.39209	140.48282	162.07281	-1335.49329	58.68499	212.60526	-1363.12817	61.61389	180.50127	-1336.74512	59.55169	120.81274
1531	6.12000	-1241.68652	962.50000	327.74139	-1385.27405	929.12726	409.91827	-1311.74866	668.28503	412.59171	0.00000	0.00000	0.00000	-1366.04614	679.75696	439.02188	-1372.90601	635.63898	429.01517	0.00000	0.00000	0.00000	0.00000	0.00000	0.00000	-1329.01050	393.96512	368.77475	-1322.07812	349.91312	373.40665	-1387.37683	381.72681	382.79794	-1373.26599	339.04330	385.58145	-1324.98376	97.94427	332.22519	-1340.78723	107.42118	251.83746	-1258.39062	79.77901	281.43304	-1415.72827	44.61734	350.46667	-1469.45154	62.20742	287.65775	-1441.44641	40.18135	231.10883	-1247.91565	984.65936	228.25032	-1408.96326	972.95557	170.53183	-1385.44470	651.60559	118.76472	-1390.82385	607.68219	118.25503	-1445.84082	652.30817	126.58681	-1442.49951	609.19446	123.24250	-1404.58630	495.69186	107.07456	-1408.92505	492.46201	241.42719	-1320.20117	329.91370	120.75500	-1305.94751	285.98865	130.31430	-1375.84875	307.38510	123.91058	-1353.89233	265.54651	128.80994	-1242.94922	136.13203	124.34752	-1246.34839	135.96585	208.48251	-1183.45825	136.48402	162.54973	-1349.72742	58.32394	213.21368	-1377.09570	61.85680	181.17279	-1350.51526	59.09311	121.36912
